<?xml version="1.0" standalone="no"?>
<!DOCTYPE svg PUBLIC "-//W3C//DTD SVG 20010904//EN"
 "http://www.w3.org/TR/2001/REC-SVG-20010904/DTD/svg10.dtd">
<svg version="1.0" xmlns="http://www.w3.org/2000/svg"
 width="355.000000pt" height="355.000000pt" viewBox="0 0 355.000000 355.000000"
 preserveAspectRatio="xMidYMid meet">

<g transform="translate(0.000000,355.000000) scale(0.100000,-0.100000)"
fill="#000000" stroke="none">
<path d="M541 3367 c-19 -24 -131 -267 -131 -286 0 -10 8 -25 18 -33 9 -9 550
-180 1202 -381 l1185 -365 262 52 c144 29 269 59 278 66 18 15 20 64 3 78 -17
13 -2758 882 -2785 882 -11 0 -26 -6 -32 -13z m1322 -503 c825 -261 1222 -391
1210 -397 -10 -4 -71 -18 -135 -31 l-118 -23 -1127 348 c-620 192 -1133 351
-1140 353 -10 4 -5 23 22 77 21 40 41 69 48 66 7 -2 564 -179 1240 -393z"/>
<path d="M372 2953 c-12 -10 -45 -76 -73 -148 -49 -120 -53 -138 -57 -231 -5
-116 9 -181 61 -278 40 -75 128 -163 204 -204 35 -18 207 -76 414 -138 195
-58 356 -108 358 -110 2 -1 -63 -216 -144 -476 -81 -260 -152 -488 -157 -506
l-9 -32 -299 0 -300 0 -2 178 -3 177 -105 0 -105 0 -3 -517 -2 -518 110 0 110
0 0 230 0 230 340 0 c352 0 385 3 418 42 7 9 89 263 183 564 94 302 174 552
178 557 4 4 217 -56 474 -133 357 -108 471 -139 485 -131 23 12 322 647 322
684 0 15 -8 30 -18 36 -12 6 -2198 694 -2343 737 -9 2 -26 -4 -37 -13z m1171
-455 c601 -187 1094 -342 1096 -344 8 -7 -239 -519 -252 -522 -19 -4 -1773
526 -1821 550 -64 33 -140 112 -177 185 -33 64 -34 72 -34 177 0 106 2 115 39
204 21 50 43 92 48 92 5 0 500 -154 1101 -342z"/>
<path d="M2857 2168 c-21 -17 -219 -446 -219 -476 0 -13 4 -28 10 -34 5 -5 65
-30 132 -54 112 -41 124 -43 145 -30 21 14 225 446 225 478 0 26 -33 46 -145
87 -123 46 -125 46 -148 29z m121 -135 c23 -9 41 -21 38 -27 -10 -24 -140
-311 -142 -315 -5 -6 -104 31 -104 40 0 20 144 319 154 319 6 0 30 -7 54 -17z"/>
</g>
</svg>
