<?xml version="1.0" standalone="no"?>
<!DOCTYPE svg PUBLIC "-//W3C//DTD SVG 20010904//EN"
 "http://www.w3.org/TR/2001/REC-SVG-20010904/DTD/svg10.dtd">
<svg version="1.0" xmlns="http://www.w3.org/2000/svg"
 width="355.000000pt" height="355.000000pt" viewBox="0 0 355.000000 355.000000"
 preserveAspectRatio="xMidYMid meet">

<g transform="translate(0.000000,355.000000) scale(0.100000,-0.100000)"
fill="#000000" stroke="none">
<path d="M2525 2450 c-143 -38 -242 -96 -342 -203 -70 -75 -120 -160 -154
-262 -21 -60 -24 -89 -24 -210 0 -127 3 -147 28 -222 70 -204 236 -370 438
-438 110 -37 262 -45 372 -21 372 83 613 459 531 829 -9 40 -36 114 -60 165
-85 176 -254 312 -450 362 -100 26 -243 26 -339 0z m256 -200 c251 -47 430
-297 390 -544 -42 -264 -290 -448 -548 -408 -208 33 -370 193 -405 399 -55
327 238 614 563 553z"/>
<path d="M213 2235 c-74 -32 -82 -137 -14 -182 l34 -23 778 2 778 3 30 29 c56
53 37 142 -35 172 -50 21 -1523 20 -1571 -1z"/>
<path d="M312 1754 c-26 -18 -29 -56 -6 -78 14 -14 81 -16 594 -16 l580 0 16
25 c20 30 10 63 -23 76 -14 5 -257 9 -581 9 -488 0 -560 -2 -580 -16z"/>
<path d="M398 1367 c-48 -45 -49 -114 -2 -158 l26 -24 698 0 698 0 26 24 c48
45 43 131 -10 166 -20 13 -108 15 -717 15 l-694 0 -25 -23z"/>
</g>
</svg>
