<?xml version="1.0" standalone="no"?>
<!DOCTYPE svg PUBLIC "-//W3C//DTD SVG 20010904//EN"
 "http://www.w3.org/TR/2001/REC-SVG-20010904/DTD/svg10.dtd">
<svg version="1.0" xmlns="http://www.w3.org/2000/svg"
 width="356.000000pt" height="355.000000pt" viewBox="0 0 356.000000 355.000000"
 preserveAspectRatio="xMidYMid meet">

<g transform="translate(0.000000,355.000000) scale(0.100000,-0.100000)"
fill="#000000" stroke="none">
<path d="M1505 3030 c-412 -202 -762 -375 -777 -384 l-28 -15 0 -854 c0 -672
3 -857 13 -864 6 -5 358 -179 781 -387 581 -285 775 -376 793 -371 13 3 28 17
33 31 7 16 9 598 8 1606 -3 1551 -3 1580 -22 1594 -11 8 -27 14 -35 14 -9 -1
-353 -167 -766 -370z m715 -1256 c0 -1247 -2 -1475 -14 -1472 -7 2 -325 156
-705 343 l-691 339 0 791 0 791 693 341 c380 188 698 342 705 342 9 1 12 -300
12 -1475z"/>
<path d="M2855 2762 c-38 -9 -65 -35 -76 -73 -17 -54 1 -89 69 -141 119 -92
246 -298 291 -472 69 -266 44 -549 -69 -781 -58 -120 -137 -225 -215 -285 -31
-24 -63 -57 -72 -73 -19 -38 -10 -87 22 -120 51 -50 103 -40 198 38 175 144
315 399 368 670 21 108 19 418 -5 525 -61 280 -205 528 -389 668 -53 40 -87
53 -122 44z"/>
<path d="M177 2622 c-16 -17 -17 -90 -17 -849 0 -791 1 -831 18 -846 16 -15
46 -17 205 -17 181 0 186 1 201 22 14 20 16 117 16 843 0 726 -2 823 -16 843
-15 21 -20 22 -203 22 -169 0 -190 -2 -204 -18z m313 -847 l0 -755 -110 0
-110 0 0 755 0 755 110 0 110 0 0 -755z"/>
<path d="M2524 2430 c-41 -16 -66 -61 -61 -107 4 -36 14 -51 74 -110 120 -116
173 -250 173 -438 0 -183 -56 -325 -171 -437 -59 -57 -72 -75 -76 -108 -7 -47
13 -82 58 -106 56 -28 92 -13 184 79 67 67 90 100 129 177 70 143 89 227 89
395 0 111 -5 156 -21 220 -34 127 -101 251 -182 338 -90 96 -139 120 -196 97z"/>
</g>
</svg>
