<?xml version="1.0" standalone="no"?>
<!DOCTYPE svg PUBLIC "-//W3C//DTD SVG 20010904//EN"
 "http://www.w3.org/TR/2001/REC-SVG-20010904/DTD/svg10.dtd">
<svg version="1.0" xmlns="http://www.w3.org/2000/svg"
 width="356.000000pt" height="355.000000pt" viewBox="0 0 356.000000 355.000000"
 preserveAspectRatio="xMidYMid meet">

<g transform="translate(0.000000,355.000000) scale(0.100000,-0.100000)"
fill="#000000" stroke="none">
<path d="M1622 3376 c-262 -64 -472 -339 -472 -620 0 -82 14 -110 65 -132 75
-31 145 25 145 116 0 108 60 249 140 328 25 25 74 59 110 76 132 62 271 34
379 -75 52 -52 106 -148 137 -239 13 -38 19 -84 19 -150 -1 -86 -4 -102 -32
-163 -40 -85 -113 -156 -208 -202 -146 -72 -108 -69 -945 -75 -814 -5 -782 -3
-811 -58 -23 -41 -14 -91 20 -126 l31 -31 743 0 c809 0 796 -1 968 59 219 76
388 251 435 452 22 94 14 262 -16 359 -113 357 -403 554 -708 481z"/>
<path d="M2845 2447 c-93 -31 -159 -77 -210 -147 -86 -117 -101 -290 -26 -290
35 0 52 24 60 86 11 74 31 116 80 167 60 64 103 82 201 82 80 0 89 -2 139 -35
98 -62 161 -192 147 -304 -11 -95 -91 -173 -224 -218 l-67 -23 -1205 -5 c-663
-3 -1211 -9 -1217 -13 -18 -12 -16 -63 3 -82 15 -14 127 -15 1223 -12 1125 3
1210 4 1265 21 200 60 321 183 333 339 13 158 -90 338 -234 409 -54 26 -79 32
-146 35 -50 2 -98 -2 -122 -10z"/>
<path d="M220 1373 c-19 -10 -41 -29 -48 -43 -19 -37 -8 -98 22 -129 l26 -26
1143 -5 c1061 -5 1146 -7 1202 -24 130 -39 240 -118 286 -207 36 -69 38 -194
7 -285 -46 -131 -121 -220 -224 -265 -38 -17 -61 -21 -119 -17 -89 6 -153 35
-216 98 -63 63 -96 136 -113 249 -15 101 -29 125 -81 139 -45 13 -93 -4 -116
-41 -43 -68 -1 -276 83 -405 166 -256 496 -332 738 -171 153 103 268 307 285
509 22 252 -138 481 -402 577 -164 59 -99 56 -1318 60 -1056 3 -1122 2 -1155
-14z"/>
</g>
</svg>
