<?xml version="1.0" standalone="no"?>
<!DOCTYPE svg PUBLIC "-//W3C//DTD SVG 20010904//EN"
 "http://www.w3.org/TR/2001/REC-SVG-20010904/DTD/svg10.dtd">
<svg version="1.0" xmlns="http://www.w3.org/2000/svg"
 width="355.000000pt" height="355.000000pt" viewBox="0 0 355.000000 355.000000"
 preserveAspectRatio="xMidYMid meet">

<g transform="translate(0.000000,355.000000) scale(0.100000,-0.100000)"
fill="#000000" stroke="none">
<path d="M603 3353 c-476 -496 -593 -1219 -297 -1840 24 -50 76 -139 115 -198
72 -108 194 -245 217 -245 7 0 24 11 37 24 31 31 27 43 -41 121 -275 318 -414
738 -375 1135 36 352 168 650 400 903 45 48 81 93 81 100 0 7 -7 23 -16 35
-26 38 -59 28 -121 -35z"/>
<path d="M2838 3396 c-45 -22 -36 -58 34 -133 207 -220 336 -475 395 -778 23
-121 23 -394 0 -520 -50 -276 -169 -525 -352 -740 -36 -42 -65 -82 -65 -89 0
-23 32 -56 54 -56 27 0 106 80 183 185 227 311 342 726 304 1097 -37 364 -170
671 -409 944 -84 96 -105 109 -144 90z"/>
<path d="M1077 2888 c-112 -121 -197 -272 -239 -425 -32 -117 -32 -364 0 -483
41 -155 169 -375 248 -426 32 -21 71 -6 80 31 5 21 0 34 -25 63 -95 112 -154
222 -193 359 -19 65 -22 102 -22 218 0 123 4 151 28 230 43 141 136 297 230
384 30 29 33 61 8 84 -33 30 -62 21 -115 -35z"/>
<path d="M2352 2918 c-25 -25 -12 -59 46 -124 283 -316 296 -777 31 -1110 -53
-67 -59 -92 -31 -117 30 -27 57 -20 99 26 85 92 156 223 200 364 25 81 27 101
27 263 0 162 -2 182 -27 263 -45 147 -111 266 -214 385 -46 52 -60 62 -87 62
-18 0 -37 -5 -44 -12z"/>
<path d="M1700 2599 c-295 -58 -413 -414 -211 -641 l41 -47 -210 -738 c-253
-890 -250 -877 -250 -923 0 -86 118 -131 178 -67 13 14 39 87 71 200 28 98 54
184 58 191 5 7 91 106 193 220 l185 207 45 -48 c25 -27 117 -129 204 -227
l159 -177 49 -172 c57 -200 71 -222 144 -222 39 0 50 5 75 33 19 21 29 43 29
65 0 17 -104 395 -231 840 l-231 807 47 51 c85 91 125 217 105 331 -30 163
-153 287 -315 317 -66 12 -72 12 -135 0z m155 -232 c80 -45 108 -151 62 -232
-64 -113 -233 -111 -294 5 -80 152 83 312 232 227z m8 -771 l68 -238 -83 -93
c-46 -51 -86 -94 -90 -94 -3 -1 -42 39 -86 89 l-79 90 70 245 70 245 31 -4 31
-3 68 -237z m166 -581 c33 -115 59 -211 57 -212 -3 -3 -202 217 -238 262 -16
20 -14 24 49 93 36 40 67 72 68 70 2 -2 30 -97 64 -213z m-421 153 c84 -92 88
-72 -43 -218 -65 -72 -118 -130 -119 -130 -4 0 109 400 112 400 2 0 25 -23 50
-52z"/>
</g>
</svg>
