<?xml version="1.0" standalone="no"?>
<!DOCTYPE svg PUBLIC "-//W3C//DTD SVG 20010904//EN"
 "http://www.w3.org/TR/2001/REC-SVG-20010904/DTD/svg10.dtd">
<svg version="1.0" xmlns="http://www.w3.org/2000/svg"
 width="355.000000pt" height="355.000000pt" viewBox="0 0 355.000000 355.000000"
 preserveAspectRatio="xMidYMid meet">

<g transform="translate(0.000000,355.000000) scale(0.100000,-0.100000)"
fill="#000000" stroke="none">
<path d="M1728 3388 c-9 -7 -36 -62 -61 -123 -141 -347 -311 -690 -546 -1100
-196 -340 -249 -446 -296 -589 -44 -133 -62 -223 -74 -387 -29 -360 65 -599
312 -795 368 -291 919 -312 1322 -50 198 129 326 309 369 518 20 97 21 306 1
448 -34 255 -103 418 -355 850 -214 367 -394 725 -530 1060 -63 154 -79 180
-110 180 -9 0 -23 -6 -32 -12z m97 -341 c96 -228 300 -629 486 -952 295 -514
334 -623 346 -966 5 -145 3 -189 -11 -253 -49 -217 -205 -396 -448 -511 -151
-71 -241 -90 -443 -89 -154 0 -179 2 -268 27 -290 80 -520 274 -596 504 -32
96 -43 225 -31 371 26 323 69 433 369 957 177 307 363 673 467 918 33 75 61
137 64 137 3 0 32 -65 65 -143z"/>
<path d="M1939 2195 c-15 -8 -32 -29 -38 -46 -10 -28 -1 -61 78 -303 132 -402
159 -492 176 -590 27 -159 17 -313 -27 -400 -27 -53 -99 -120 -162 -151 -30
-15 -62 -35 -72 -46 -38 -42 -11 -132 44 -146 39 -10 170 20 244 56 230 111
342 333 311 618 -6 54 -21 130 -34 168 -34 103 -393 819 -420 839 -29 20 -65
20 -100 1z"/>
</g>
</svg>
