<?xml version="1.0" standalone="no"?>
<!DOCTYPE svg PUBLIC "-//W3C//DTD SVG 20010904//EN"
 "http://www.w3.org/TR/2001/REC-SVG-20010904/DTD/svg10.dtd">
<svg version="1.0" xmlns="http://www.w3.org/2000/svg"
 width="355.000000pt" height="355.000000pt" viewBox="0 0 355.000000 355.000000"
 preserveAspectRatio="xMidYMid meet">

<g transform="translate(0.000000,355.000000) scale(0.100000,-0.100000)"
fill="#000000" stroke="none">
<path d="M2410 3387 c-19 -6 -56 -32 -83 -58 l-48 -47 -86 -4 c-84 -4 -88 -4
-142 29 -83 50 -148 66 -252 61 -76 -4 -97 -9 -162 -41 -91 -45 -156 -112
-200 -205 -31 -64 -32 -73 -35 -216 l-4 -148 -41 40 c-64 61 -101 76 -182 77
-78 0 -125 -18 -177 -67 -29 -27 -33 -28 -62 -16 -17 7 -65 13 -106 13 -62 0
-85 -5 -132 -28 -96 -47 -162 -140 -175 -246 l-6 -49 -57 -11 c-109 -19 -209
-91 -258 -186 -39 -74 -38 -170 3 -244 37 -66 91 -114 175 -155 62 -29 71 -31
187 -31 120 -1 122 -1 143 -28 29 -36 100 -84 152 -103 175 -62 375 -22 481
96 24 27 47 46 51 43 3 -3 6 -118 6 -256 l0 -249 -45 -51 c-100 -115 -151
-268 -142 -432 9 -161 65 -287 177 -401 340 -343 930 -170 1036 303 23 102 15
233 -19 332 -27 75 -90 181 -132 221 -14 13 -25 34 -25 47 0 21 4 23 53 23 60
0 77 12 77 52 0 34 -24 48 -85 48 l-46 0 3 123 3 122 40 3 c77 5 85 9 85 46 0
40 -11 46 -81 46 l-49 0 0 125 0 125 46 0 c60 0 84 14 84 48 0 40 -17 52 -77
52 -49 0 -53 2 -53 24 0 22 7 26 57 36 31 7 72 19 90 28 31 15 35 14 85 -10
170 -83 361 -41 464 102 33 46 36 48 67 39 87 -25 209 -1 284 57 168 128 118
385 -90 455 l-48 16 -4 60 c-4 77 -32 140 -89 201 -79 84 -222 130 -322 103
-40 -11 -41 -10 -85 32 -66 63 -158 83 -249 54z m163 -119 c15 -11 35 -36 45
-56 20 -44 44 -50 109 -28 98 33 205 7 270 -67 53 -61 60 -103 37 -223 -8 -44
15 -64 74 -64 102 -1 173 -62 179 -154 5 -65 -18 -104 -83 -142 -63 -37 -130
-38 -203 -4 -60 28 -76 23 -102 -29 -58 -112 -119 -159 -218 -168 -71 -7 -118
7 -189 54 l-53 36 -70 -37 c-119 -61 -109 -89 -109 307 0 337 -1 343 -25 411
-13 39 -22 72 -20 74 3 3 25 -3 50 -12 57 -22 78 -15 100 34 42 93 131 122
208 68z m-650 -8 c86 -27 163 -95 200 -177 l26 -58 6 -860 7 -860 38 -40 c157
-165 187 -402 78 -607 -37 -70 -145 -176 -215 -212 -203 -102 -441 -64 -603
96 -198 196 -206 515 -19 713 l48 51 3 855 c4 986 -4 908 103 1016 50 50 73
65 126 82 82 26 121 26 202 1z m-684 -505 c40 -20 78 -69 93 -117 7 -25 21
-44 35 -51 l23 -10 0 -299 0 -298 -30 0 c-32 0 -41 -8 -70 -57 -11 -18 -38
-46 -61 -63 -142 -102 -377 -68 -456 67 -36 61 -48 66 -124 42 -209 -67 -434
106 -350 269 45 87 126 131 243 132 67 0 79 3 88 20 6 12 8 30 5 41 -4 12 -7
43 -7 69 2 154 161 246 303 175 28 -14 58 -23 67 -20 10 3 35 26 56 51 21 25
48 49 60 54 33 14 94 11 125 -5z"/>
<path d="M1752 3139 c-46 -14 -115 -85 -130 -135 -9 -31 -12 -253 -12 -914 l0
-873 -51 -54 c-27 -29 -62 -79 -77 -110 -23 -49 -27 -72 -27 -148 0 -80 4 -97
31 -155 39 -82 98 -141 182 -182 60 -30 75 -33 157 -33 76 0 99 4 147 27 160
75 251 244 219 409 -17 82 -42 131 -102 194 l-49 51 -2 890 -3 889 -22 42
c-49 91 -155 132 -261 102z m154 -123 l34 -34 0 -711 0 -711 -115 0 -115 0 0
711 0 711 34 34 c29 29 41 34 81 34 40 0 52 -5 81 -34z"/>
</g>
</svg>
