<?xml version="1.0" standalone="no"?>
<!DOCTYPE svg PUBLIC "-//W3C//DTD SVG 20010904//EN"
 "http://www.w3.org/TR/2001/REC-SVG-20010904/DTD/svg10.dtd">
<svg version="1.0" xmlns="http://www.w3.org/2000/svg"
 width="473.000000pt" height="560.000000pt" viewBox="0 0 473.000000 560.000000"
 preserveAspectRatio="xMidYMid meet">

<g transform="translate(0.000000,560.000000) scale(0.100000,-0.100000)"
fill="#000000" stroke="none">
<path d="M2632 5047 c-112 -62 -222 -128 -244 -146 -94 -79 -105 -198 -34
-378 24 -61 24 -63 8 -113 -10 -27 -19 -50 -22 -50 -3 1 -17 19 -32 40 -27 39
-27 42 -18 116 19 150 -26 293 -118 375 -186 166 -524 184 -895 49 -144 -53
-147 -72 -21 -124 187 -76 321 -192 434 -376 36 -58 81 -121 101 -141 41 -41
112 -69 175 -69 57 0 161 34 214 69 l44 30 25 -37 c14 -20 37 -66 52 -102 l28
-65 -72 -12 c-433 -73 -776 -382 -893 -803 -32 -117 -44 -336 -24 -458 76
-479 461 -854 944 -921 334 -47 678 71 922 314 224 223 336 513 321 829 -13
279 -122 529 -315 723 -178 179 -414 294 -661 322 -50 5 -96 13 -101 16 -13 8
-13 146 1 200 10 38 15 44 45 49 18 4 70 25 115 48 226 113 342 355 295 616
-15 87 -28 112 -55 112 -9 0 -108 -51 -219 -113z m8 -1032 c467 -100 800 -513
800 -995 0 -269 -97 -504 -289 -703 -179 -186 -412 -290 -676 -303 -467 -24
-880 271 -1021 731 -26 85 -28 101 -28 275 0 219 14 284 94 446 62 126 117
200 223 301 154 144 350 237 557 262 91 12 251 5 340 -14z"/>
<path d="M2390 3961 c-52 -16 -131 -62 -190 -112 -71 -59 -150 -161 -150 -194
0 -27 30 -38 67 -24 37 14 41 12 48 -23 3 -18 11 -43 17 -55 16 -32 5 -38 -41
-25 -69 21 -78 17 -162 -70 -43 -46 -79 -89 -79 -97 0 -8 10 -25 21 -38 31
-32 11 -53 -51 -53 -72 0 -80 -5 -80 -56 0 -25 7 -60 14 -79 13 -30 20 -35 48
-35 33 0 38 4 172 109 40 31 68 45 99 48 42 5 42 5 90 -61 27 -36 55 -66 62
-66 22 0 45 29 45 57 0 18 4 24 15 19 35 -13 113 -18 133 -7 11 6 27 32 36 57
23 67 41 84 90 84 51 0 99 -28 115 -69 20 -47 7 -76 -52 -114 -71 -46 -87 -67
-95 -124 l-7 -48 -40 2 c-126 7 -153 6 -183 -7 -31 -14 -36 -13 -85 14 -171
94 -219 116 -259 116 -85 0 -175 -68 -262 -198 -85 -128 -107 -223 -67 -288
31 -51 106 -80 281 -110 195 -33 210 -40 210 -98 0 -36 7 -52 35 -86 19 -23
35 -46 35 -50 0 -5 -9 -24 -20 -43 -27 -46 -19 -75 35 -135 l43 -47 162 0 162
0 49 53 c58 63 184 250 230 342 18 35 34 85 37 111 4 41 1 49 -19 62 -13 9
-45 16 -71 15 -54 0 -101 20 -106 44 -5 24 33 32 60 14 74 -52 231 36 231 130
0 23 2 24 66 24 91 0 235 25 279 48 32 17 38 25 45 68 11 67 -7 220 -38 329
-82 282 -305 529 -573 634 -49 20 -55 20 -90 6 -44 -19 -79 -50 -98 -88 -18
-35 -55 -50 -89 -37 -34 13 -32 27 11 71 41 42 40 63 -1 79 -30 12 -99 12
-135 1z"/>
<path d="M1760 1205 c0 -139 2 -165 15 -165 12 0 15 25 17 141 l3 141 56 -138
c31 -77 60 -139 64 -139 5 0 33 62 64 139 l56 139 3 -142 c2 -116 5 -141 17
-141 13 0 15 26 15 165 0 164 0 165 -22 165 -20 0 -30 -18 -77 -137 l-54 -136
-22 49 c-12 27 -37 88 -56 136 -29 74 -38 88 -56 88 -23 0 -23 -1 -23 -165z"/>
<path d="M2260 1205 c0 -103 4 -165 10 -165 6 0 10 62 10 165 0 103 -4 165
-10 165 -6 0 -10 -62 -10 -165z"/>
<path d="M2154 1349 c-10 -17 13 -36 27 -22 12 12 4 33 -11 33 -5 0 -12 -5
-16 -11z"/>
<path d="M2364 1349 c-10 -17 13 -36 27 -22 12 12 4 33 -11 33 -5 0 -12 -5
-16 -11z"/>
<path d="M2526 1269 c-54 -42 -70 -111 -41 -173 18 -37 61 -66 99 -66 34 0 96
26 96 39 0 15 -6 14 -42 -5 -57 -29 -138 10 -138 67 0 17 9 19 100 19 55 0
100 3 100 8 0 32 -26 85 -51 106 -38 32 -86 34 -123 5z m108 -21 c14 -13 28
-35 32 -50 l6 -28 -86 0 c-80 0 -86 1 -86 21 0 29 53 79 84 79 14 0 36 -10 50
-22z"/>
<path d="M2160 1160 c0 -73 4 -120 10 -120 6 0 10 47 10 120 0 73 -4 120 -10
120 -6 0 -10 -47 -10 -120z"/>
<path d="M2370 1160 c0 -73 4 -120 10 -120 6 0 10 47 10 120 0 73 -4 120 -10
120 -6 0 -10 -47 -10 -120z"/>
<path d="M2760 1175 c0 -92 3 -108 20 -125 24 -24 70 -26 113 -4 21 12 32 13
35 5 2 -6 8 -11 13 -11 5 0 9 54 9 120 0 73 -4 120 -10 120 -6 0 -10 -35 -10
-86 0 -47 -4 -93 -10 -103 -13 -25 -64 -45 -95 -37 -35 9 -45 41 -45 142 0 49
-4 84 -10 84 -6 0 -10 -42 -10 -105z"/>
</g>
</svg>
