<?xml version="1.0" standalone="no"?>
<!DOCTYPE svg PUBLIC "-//W3C//DTD SVG 20010904//EN"
 "http://www.w3.org/TR/2001/REC-SVG-20010904/DTD/svg10.dtd">
<svg version="1.0" xmlns="http://www.w3.org/2000/svg"
 width="474.000000pt" height="562.000000pt" viewBox="0 0 474.000000 562.000000"
 preserveAspectRatio="xMidYMid meet">

<g transform="translate(0.000000,562.000000) scale(0.100000,-0.100000)"
fill="#000000" stroke="none">
<path d="M2284 5113 c-197 -162 -402 -260 -619 -297 -101 -17 -325 -36 -425
-36 -95 0 -97 -4 -109 -180 -48 -667 89 -1340 374 -1835 159 -277 332 -478
557 -648 133 -101 284 -197 309 -197 21 0 202 118 330 216 463 355 787 990
884 1729 35 271 37 812 2 884 -10 22 -19 26 -62 28 -323 15 -501 38 -625 80
-150 51 -333 157 -453 262 -32 28 -66 51 -76 51 -10 0 -49 -25 -87 -57z m164
-112 c193 -147 396 -239 610 -275 101 -18 299 -36 388 -36 l61 0 7 -77 c9
-116 7 -464 -4 -588 -56 -614 -240 -1112 -561 -1515 -134 -169 -261 -282 -476
-425 l-103 -68 -55 34 c-198 123 -365 263 -485 406 -265 317 -456 723 -546
1164 -64 319 -89 754 -58 1022 l6 47 61 0 c89 0 276 18 387 36 214 35 448 143
628 290 30 24 56 44 58 44 3 0 40 -27 82 -59z"/>
<path d="M2275 4948 c-108 -82 -315 -188 -437 -222 -111 -32 -277 -55 -444
-63 l-132 -6 -6 -45 c-10 -72 -7 -467 4 -592 25 -269 87 -560 171 -794 55
-155 179 -404 266 -533 169 -251 323 -404 585 -577 l86 -58 59 37 c583 372
937 993 1039 1825 18 148 28 542 17 655 l-8 80 -55 2 c-465 20 -698 95 -1010
326 l-45 33 -90 -68z m869 -690 c8 -13 5 -27 -13 -60 -66 -120 -424 -743 -593
-1033 -185 -317 -194 -330 -223 -330 -29 0 -38 14 -267 410 -302 521 -296 509
-279 529 11 13 39 16 177 16 l163 0 98 -175 c54 -96 100 -175 103 -175 3 0 45
71 94 158 121 213 376 654 389 670 7 9 50 12 175 10 142 -3 166 -5 176 -20z"/>
<path d="M1335 1343 c9 -21 40 -95 68 -166 43 -105 55 -127 71 -125 27 4 162
328 137 328 -13 0 -33 -38 -75 -146 -32 -80 -61 -143 -64 -139 -3 3 -31 67
-62 142 -38 95 -61 139 -73 141 -17 3 -17 1 -2 -35z"/>
<path d="M2040 1215 c0 -103 4 -165 10 -165 6 0 10 62 10 165 0 103 -4 165
-10 165 -6 0 -10 -62 -10 -165z"/>
<path d="M2540 1215 c0 -103 4 -165 10 -165 6 0 10 35 10 86 0 100 8 118 55
134 74 24 95 -5 95 -136 0 -49 4 -84 10 -84 6 0 10 42 10 105 0 92 -3 108 -20
125 -24 24 -58 25 -107 5 -19 -8 -37 -15 -39 -15 -2 0 -4 25 -4 55 0 30 -4 55
-10 55 -6 0 -10 -62 -10 -165z"/>
<path d="M3380 1320 l0 -61 -29 22 c-23 17 -38 21 -68 16 -66 -11 -104 -80
-89 -162 15 -79 98 -120 157 -76 23 17 29 19 29 6 0 -8 7 -15 15 -15 13 0 15
25 15 165 0 140 -2 165 -15 165 -12 0 -15 -13 -15 -60z m-18 -67 c14 -12 18
-31 18 -83 0 -75 -13 -95 -68 -106 -26 -5 -36 -1 -62 24 -26 26 -30 38 -30 82
0 44 4 56 30 82 26 25 36 29 62 24 18 -3 40 -14 50 -23z"/>
<path d="M1924 1359 c-10 -17 13 -36 27 -22 12 12 4 33 -11 33 -5 0 -12 -5
-16 -11z"/>
<path d="M2144 1359 c-10 -17 13 -36 27 -22 12 12 4 33 -11 33 -5 0 -12 -5
-16 -11z"/>
<path d="M3084 1359 c-10 -17 13 -36 27 -22 12 12 4 33 -11 33 -5 0 -12 -5
-16 -11z"/>
<path d="M1696 1279 c-54 -42 -70 -111 -41 -173 18 -37 61 -66 99 -66 34 0 96
26 96 39 0 15 -6 14 -42 -5 -57 -29 -138 10 -138 67 0 17 9 19 100 19 55 0
100 3 100 8 0 32 -26 85 -51 106 -38 32 -86 34 -123 5z m108 -21 c14 -13 28
-35 32 -50 l6 -28 -86 0 c-80 0 -86 1 -86 21 0 29 53 79 84 79 14 0 36 -10 50
-22z"/>
<path d="M2300 1287 c-31 -15 -60 -71 -60 -117 0 -46 28 -101 60 -118 31 -16
86 -9 111 14 18 16 19 16 19 -12 0 -66 -67 -102 -131 -70 -37 18 -50 13 -27
-10 22 -22 91 -29 129 -14 48 20 59 59 59 205 0 104 -2 125 -15 125 -8 0 -15
-7 -15 -16 0 -13 -5 -12 -26 5 -30 24 -67 27 -104 8z m112 -34 c14 -12 18 -31
18 -83 0 -75 -13 -95 -68 -106 -26 -5 -36 -1 -62 24 -26 26 -30 38 -30 82 0
44 4 56 30 82 26 25 36 29 62 24 18 -3 40 -14 50 -23z"/>
<path d="M2856 1279 c-54 -42 -70 -111 -41 -173 18 -37 61 -66 99 -66 34 0 96
26 96 39 0 15 -6 14 -42 -5 -57 -29 -138 10 -138 67 0 17 9 19 100 19 55 0
100 3 100 8 0 32 -26 85 -51 106 -38 32 -86 34 -123 5z m108 -21 c14 -13 28
-35 32 -50 l6 -28 -86 0 c-80 0 -86 1 -86 21 0 29 53 79 84 79 14 0 36 -10 50
-22z"/>
<path d="M1930 1170 c0 -73 4 -120 10 -120 6 0 10 47 10 120 0 73 -4 120 -10
120 -6 0 -10 -47 -10 -120z"/>
<path d="M2150 1170 c0 -73 4 -120 10 -120 6 0 10 47 10 120 0 73 -4 120 -10
120 -6 0 -10 -47 -10 -120z"/>
<path d="M3090 1170 c0 -73 4 -120 10 -120 6 0 10 47 10 120 0 73 -4 120 -10
120 -6 0 -10 -47 -10 -120z"/>
</g>
</svg>
