<?xml version="1.0" standalone="no"?>
<!DOCTYPE svg PUBLIC "-//W3C//DTD SVG 20010904//EN"
 "http://www.w3.org/TR/2001/REC-SVG-20010904/DTD/svg10.dtd">
<svg version="1.0" xmlns="http://www.w3.org/2000/svg"
 width="474.000000pt" height="562.000000pt" viewBox="0 0 474.000000 562.000000"
 preserveAspectRatio="xMidYMid meet">

<g transform="translate(0.000000,562.000000) scale(0.100000,-0.100000)"
fill="#000000" stroke="none">
<path d="M1065 5166 c-78 -34 -131 -128 -123 -218 4 -49 57 -144 627 -1133
343 -594 630 -1087 637 -1096 11 -12 14 -93 16 -400 l3 -384 153 -3 152 -3 0
376 0 376 49 82 c115 192 1205 2086 1222 2122 46 100 1 223 -102 276 -37 19
-71 19 -1321 19 -1037 -1 -1289 -3 -1313 -14z m2585 -79 c19 -7 44 -27 57 -46
50 -74 80 -13 -604 -1198 -494 -856 -633 -1089 -657 -1104 -47 -29 -109 -25
-146 9 -17 15 -298 493 -650 1102 -577 999 -620 1078 -620 1121 0 54 26 94 74
115 43 18 2492 19 2546 1z"/>
<path d="M1133 5053 c-31 -6 -63 -49 -63 -84 0 -34 1216 -2150 1256 -2186 30
-27 74 -30 103 -5 30 25 1261 2163 1261 2190 0 13 -5 32 -11 44 -27 49 9 48
-1301 47 -673 -1 -1233 -4 -1245 -6z m1977 -358 c0 -10 -731 -1270 -738 -1272
-5 -2 -536 907 -705 1209 l-39 68 741 0 c408 0 741 -2 741 -5z"/>
<path d="M1545 1333 c9 -21 40 -95 68 -166 43 -105 55 -127 71 -125 27 4 162
328 137 328 -13 0 -33 -38 -75 -146 -32 -80 -61 -143 -64 -139 -3 3 -31 67
-62 142 -38 95 -61 139 -73 141 -17 3 -17 1 -2 -35z"/>
<path d="M2300 1205 c0 -103 4 -165 10 -165 6 0 10 15 10 33 0 23 8 41 25 57
l25 24 38 -44 c20 -24 41 -49 45 -57 4 -7 17 -13 29 -13 17 0 11 11 -38 66
l-58 67 59 53 c46 41 55 54 40 54 -12 0 -47 -27 -85 -65 -35 -36 -68 -65 -72
-65 -4 0 -8 50 -8 110 0 67 -4 110 -10 110 -6 0 -10 -62 -10 -165z"/>
<path d="M1906 1269 c-54 -42 -70 -111 -41 -173 18 -37 61 -66 99 -66 34 0 96
26 96 39 0 15 -6 14 -42 -5 -57 -29 -138 10 -138 67 0 17 9 19 100 19 55 0
100 3 100 8 0 32 -26 85 -51 106 -38 32 -86 34 -123 5z m108 -21 c14 -13 28
-35 32 -50 l6 -28 -86 0 c-80 0 -86 1 -86 21 0 29 53 79 84 79 14 0 36 -10 50
-22z"/>
<path d="M2193 1269 c-28 -18 -33 -19 -33 -5 0 9 -4 16 -10 16 -6 0 -10 -47
-10 -120 0 -73 4 -120 10 -120 6 0 10 36 10 88 0 80 2 91 23 110 13 12 33 22
45 22 13 0 22 6 22 15 0 21 -19 19 -57 -6z"/>
<path d="M2586 1269 c-54 -42 -70 -111 -41 -173 18 -37 61 -66 99 -66 34 0 96
26 96 39 0 15 -6 14 -42 -5 -57 -29 -138 10 -138 67 0 17 9 19 100 19 55 0
100 3 100 8 0 32 -26 85 -51 106 -38 32 -86 34 -123 5z m108 -21 c14 -13 28
-35 32 -50 l6 -28 -86 0 c-80 0 -86 1 -86 21 0 29 53 79 84 79 14 0 36 -10 50
-22z"/>
<path d="M2876 1269 c-54 -42 -70 -111 -41 -173 18 -37 61 -66 99 -66 34 0 96
26 96 39 0 15 -6 14 -42 -5 -57 -29 -138 10 -138 67 0 17 9 19 100 19 55 0
100 3 100 8 0 32 -26 85 -51 106 -38 32 -86 34 -123 5z m108 -21 c14 -13 28
-35 32 -50 l6 -28 -86 0 c-80 0 -86 1 -86 21 0 29 53 79 84 79 14 0 36 -10 50
-22z"/>
<path d="M3163 1269 c-28 -18 -33 -19 -33 -5 0 9 -4 16 -10 16 -6 0 -10 -47
-10 -120 0 -73 4 -120 10 -120 6 0 10 36 10 88 0 80 2 91 23 110 13 12 33 22
45 22 13 0 22 6 22 15 0 21 -19 19 -57 -6z"/>
</g>
</svg>
