<?xml version="1.0" standalone="no"?>
<!DOCTYPE svg PUBLIC "-//W3C//DTD SVG 20010904//EN"
 "http://www.w3.org/TR/2001/REC-SVG-20010904/DTD/svg10.dtd">
<svg version="1.0" xmlns="http://www.w3.org/2000/svg"
 width="473.000000pt" height="562.000000pt" viewBox="0 0 473.000000 562.000000"
 preserveAspectRatio="xMidYMid meet">

<g transform="translate(0.000000,562.000000) scale(0.100000,-0.100000)"
fill="#000000" stroke="none">
<path d="M2227 5158 c-3 -13 -9 -53 -12 -91 -4 -37 -12 -70 -19 -74 -6 -4 -39
-17 -74 -29 -34 -12 -78 -31 -96 -42 l-35 -20 -72 54 c-40 30 -75 54 -78 54
-4 0 -55 -49 -115 -109 l-108 -109 56 -75 57 -75 -24 -49 c-13 -26 -32 -73
-42 -103 -10 -30 -22 -58 -28 -61 -5 -4 -37 -10 -71 -13 -118 -13 -107 4 -104
-175 l3 -156 60 -7 c121 -15 121 -14 135 -60 6 -24 25 -70 41 -104 16 -33 29
-64 29 -68 0 -4 -22 -37 -50 -73 -27 -36 -50 -69 -50 -72 0 -4 49 -55 109
-115 l109 -108 73 55 73 55 46 -22 c25 -13 70 -31 100 -41 30 -10 58 -21 63
-24 4 -4 13 -46 19 -94 l12 -87 157 0 158 0 5 33 c3 17 9 58 13 91 l8 58 77
28 c42 16 90 36 107 46 l30 17 74 -55 74 -56 111 111 111 112 -55 74 -56 73
30 63 c17 35 36 83 42 108 l12 45 94 12 94 13 0 157 0 158 -42 6 c-24 3 -66 8
-94 12 l-51 6 -21 67 c-12 36 -32 84 -45 106 l-23 40 53 71 c29 39 53 75 53
80 0 5 -48 57 -107 116 l-108 107 -73 -55 -74 -56 -67 30 c-37 17 -86 35 -109
41 -23 7 -42 17 -43 24 0 7 -6 48 -12 92 l-12 80 -156 3 c-156 2 -157 2 -162
-20z m348 -518 c90 -43 166 -118 208 -207 30 -65 32 -74 32 -188 0 -116 -1
-122 -34 -187 -107 -214 -360 -303 -576 -204 -78 36 -168 125 -208 205 -31 63
-32 71 -32 186 0 114 2 123 31 185 39 82 96 145 169 189 81 49 134 61 245 58
83 -3 104 -8 165 -37z"/>
<path d="M2293 4635 c-121 -33 -212 -109 -266 -223 -29 -61 -32 -75 -32 -162
1 -75 6 -107 24 -153 32 -81 115 -168 199 -209 62 -31 73 -33 172 -33 99 0
110 2 172 33 84 41 167 128 199 209 18 46 23 78 24 153 0 87 -3 101 -32 162
-55 116 -145 191 -270 223 -70 18 -121 18 -190 0z m217 -126 c58 -26 105 -71
138 -134 23 -42 27 -62 26 -130 0 -123 -48 -201 -156 -254 -182 -91 -397 27
-415 229 -13 144 86 281 227 311 49 11 127 1 180 -22z"/>
<path d="M729 3173 c-2 -16 -3 -40 -1 -55 l3 -28 1619 0 1619 0 3 28 c2 15 1
39 -1 55 l-3 27 -1618 0 -1618 0 -3 -27z"/>
<path d="M1708 2970 c-144 -25 -266 -83 -366 -175 l-68 -63 -37 34 c-20 19
-45 34 -55 34 -21 0 -223 -173 -234 -200 -3 -10 -1 -27 5 -39 13 -24 645 -604
677 -621 27 -15 46 -3 155 93 106 95 111 101 96 133 -9 21 -7 25 19 39 25 13
94 15 455 15 l425 0 135 54 c149 60 199 95 440 306 66 58 155 134 198 169 113
91 107 121 -37 187 -149 68 -305 43 -421 -69 l-50 -48 -122 -19 c-167 -27
-167 -27 -223 23 -79 71 -123 81 -355 84 -186 1 -205 3 -270 27 -119 42 -250
55 -367 36z m249 -116 c43 -9 106 -29 140 -44 60 -27 68 -28 121 -19 31 6 116
9 187 7 151 -5 199 -20 245 -77 l30 -36 -107 -6 c-60 -4 -177 -7 -261 -8 -84
0 -162 -6 -172 -11 -34 -18 -44 -48 -25 -76 15 -23 20 -24 118 -24 242 0 538
14 554 25 10 8 16 25 15 48 -2 41 -14 36 158 62 139 22 161 29 185 65 49 74
169 120 260 100 27 -6 54 -14 62 -18 14 -8 -172 -178 -374 -340 -89 -72 -118
-88 -218 -127 l-116 -45 -420 0 -421 0 -68 -30 c-38 -16 -74 -30 -82 -29 -7 0
-103 88 -213 195 l-200 195 60 54 c142 129 342 181 542 139z"/>
<path d="M805 1333 c9 -21 40 -95 68 -166 43 -105 55 -127 71 -125 27 4 162
328 137 328 -13 0 -33 -38 -75 -146 -32 -80 -61 -143 -64 -139 -3 3 -31 67
-62 142 -38 95 -61 139 -73 141 -17 3 -17 1 -2 -35z"/>
<path d="M2074 1349 c-10 -17 13 -36 27 -22 12 12 4 33 -11 33 -5 0 -12 -5
-16 -11z"/>
<path d="M2734 1349 c-10 -17 13 -36 27 -22 12 12 4 33 -11 33 -5 0 -12 -5
-16 -11z"/>
<path d="M1159 1276 c-54 -31 -74 -117 -43 -182 45 -95 176 -77 204 28 14 48
-1 106 -34 137 -30 28 -92 36 -127 17z m85 -16 c72 -27 72 -173 0 -200 -39
-15 -53 -12 -85 19 -25 25 -29 37 -29 81 0 44 4 56 29 81 32 31 46 34 85 19z"/>
<path d="M1449 1276 c-54 -31 -74 -117 -43 -182 45 -95 176 -77 204 28 14 48
-1 106 -34 137 -30 28 -92 36 -127 17z m85 -16 c72 -27 72 -173 0 -200 -39
-15 -53 -12 -85 19 -25 25 -29 37 -29 81 0 44 4 56 29 81 32 31 46 34 85 19z"/>
<path d="M1733 1269 c-28 -18 -33 -19 -33 -5 0 9 -4 16 -10 16 -6 0 -10 -47
-10 -120 0 -73 4 -120 10 -120 6 0 10 36 10 88 0 80 2 91 23 110 13 12 33 22
45 22 13 0 22 6 22 15 0 21 -19 19 -57 -6z"/>
<path d="M2226 1269 c-54 -42 -70 -111 -41 -173 18 -37 61 -66 99 -66 34 0 96
26 96 39 0 15 -6 14 -42 -5 -57 -29 -138 10 -138 67 0 17 9 19 100 19 55 0
100 3 100 8 0 32 -26 85 -51 106 -38 32 -86 34 -123 5z m108 -21 c14 -13 28
-35 32 -50 l6 -28 -86 0 c-80 0 -86 1 -86 21 0 29 53 79 84 79 14 0 36 -10 50
-22z"/>
<path d="M2530 1275 c-22 -10 -36 -12 -38 -5 -2 5 -8 10 -13 10 -5 0 -9 -54
-9 -120 0 -73 4 -120 10 -120 6 0 10 35 10 86 0 100 8 118 55 134 74 24 95 -5
95 -136 0 -49 4 -84 10 -84 15 0 13 202 -3 223 -17 25 -75 30 -117 12z"/>
<path d="M2900 1275 c-22 -10 -36 -12 -38 -5 -2 5 -8 10 -13 10 -5 0 -9 -54
-9 -120 0 -73 4 -120 10 -120 6 0 10 35 10 86 0 100 8 118 55 134 74 24 95 -5
95 -136 0 -49 4 -84 10 -84 15 0 13 202 -3 223 -17 25 -75 30 -117 12z"/>
<path d="M3160 1277 c-31 -15 -60 -71 -60 -117 0 -46 28 -101 60 -118 31 -16
86 -9 111 14 18 16 19 16 19 -12 0 -66 -67 -102 -131 -70 -37 18 -50 13 -27
-10 22 -22 91 -29 129 -14 48 20 59 59 59 205 0 104 -2 125 -15 125 -8 0 -15
-7 -15 -16 0 -13 -5 -12 -26 5 -30 24 -67 27 -104 8z m112 -34 c14 -12 18 -31
18 -83 0 -75 -13 -95 -68 -106 -26 -5 -36 -1 -62 24 -26 26 -30 38 -30 82 0
44 4 56 30 82 26 25 36 29 62 24 18 -3 40 -14 50 -23z"/>
<path d="M3446 1269 c-54 -42 -70 -111 -41 -173 18 -37 61 -66 99 -66 34 0 96
26 96 39 0 15 -6 14 -42 -5 -57 -29 -138 10 -138 67 0 17 9 19 100 19 55 0
100 3 100 8 0 32 -26 85 -51 106 -38 32 -86 34 -123 5z m108 -21 c14 -13 28
-35 32 -50 l6 -28 -86 0 c-80 0 -86 1 -86 21 0 29 53 79 84 79 14 0 36 -10 50
-22z"/>
<path d="M3740 1275 c-22 -10 -36 -12 -38 -5 -2 5 -8 10 -13 10 -5 0 -9 -54
-9 -120 0 -73 4 -120 10 -120 6 0 10 35 10 86 0 100 8 118 55 134 74 24 95 -5
95 -136 0 -49 4 -84 10 -84 15 0 13 202 -3 223 -17 25 -75 30 -117 12z"/>
<path d="M1830 1270 c0 -5 32 -10 70 -12 l71 -3 -71 -97 c-38 -53 -70 -101
-70 -107 0 -7 32 -11 90 -11 53 0 90 4 90 10 0 6 -30 10 -70 10 -38 0 -70 3
-70 6 0 4 29 47 65 97 36 50 65 96 65 104 0 10 -21 13 -85 13 -47 0 -85 -4
-85 -10z"/>
<path d="M2080 1160 c0 -73 4 -120 10 -120 6 0 10 47 10 120 0 73 -4 120 -10
120 -6 0 -10 -47 -10 -120z"/>
<path d="M2740 1160 c0 -73 4 -120 10 -120 6 0 10 47 10 120 0 73 -4 120 -10
120 -6 0 -10 -47 -10 -120z"/>
</g>
</svg>
